<?xml version="1.0" encoding="UTF-8" standalone="no"?> <svg id="Layer_1" data-name="Layer 1" xmlns="http://www.w3.org/2000/svg" viewBox="0 0 64 64"><path d="M31,18h2a1,1,0,0,0,1-.84l2-12A1,1,0,0,0,35,4H29a1,1,0,0,0-1,1.16l2,12A1,1,0,0,0,31,18Z"/><path d="M44.39,22a1,1,0,0,0,1.29.11l9.9-7.07a1,1,0,0,0,.42-.73,1,1,0,0,0-.29-.79L51.46,9.29A1,1,0,0,0,50.68,9a1,1,0,0,0-.74.42l-7.07,9.9A1,1,0,0,0,43,20.61Z"/><path d="M18.32,22.81a1,1,0,0,0,.58.19,1,1,0,0,0,.71-.29L21,21.29A1,1,0,0,0,21.13,20l-7.07-9.89a1,1,0,0,0-.74-.42,1,1,0,0,0-.78.29L8.29,14.22a1,1,0,0,0,.13,1.52Z"/><path d="M32,20a16,16,0,0,0-8,29.85V51a1,1,0,0,0,.3.71A3,3,0,0,0,24,53a3,3,0,0,0,2.22,2.88A3,3,0,0,0,29,60h6a3,3,0,0,0,2.78-4.12A3,3,0,0,0,40,53a3,3,0,0,0-.3-1.29A1,1,0,0,0,40,51V49.85A16,16,0,0,0,32,20ZM26.24,36.34A1,1,0,0,1,27,36a1.89,1.89,0,0,1,1.66,1.4A1.92,1.92,0,0,1,30.33,36,1.89,1.89,0,0,1,32,37.4,1.92,1.92,0,0,1,33.66,36a1.91,1.91,0,0,1,1.67,1.41A1.91,1.91,0,0,1,37,36a1,1,0,0,1,.76.34,1,1,0,0,1,.23.8L36.15,50h-2l1.43-10-.23,0a1.89,1.89,0,0,1-1.67-1.41A1.89,1.89,0,0,1,32,40a1.89,1.89,0,0,1-1.66-1.4A1.9,1.9,0,0,1,28.66,40l-.22,0,1.43,10h-2L26,37.14A1,1,0,0,1,26.24,36.34ZM37,54H27a1,1,0,0,1,0-2H37a1,1,0,0,1,0,2Z"/></svg>