<?xml version="1.0" encoding="UTF-8" standalone="no"?> <svg width="64" height="64" viewBox="0 0 64 64" fill="none" xmlns="http://www.w3.org/2000/svg">
<path d="M30.37 31.41C30.9533 31.8186 31.6478 32.0385 32.36 32.04C32.9258 32.0369 33.4826 31.8982 33.9837 31.6355C34.4849 31.3727 34.9157 30.9936 35.24 30.53C35.635 29.9611 35.8524 29.2878 35.8646 28.5954C35.8768 27.9029 35.6833 27.2224 35.3085 26.6399C34.9338 26.0575 34.3947 25.5993 33.7595 25.3234C33.1242 25.0475 32.4214 24.9663 31.74 25.09C30.8269 25.2569 30.0173 25.7791 29.4887 26.5421C28.96 27.305 28.7555 28.2465 28.92 29.16C28.9987 29.613 29.1676 30.0456 29.4167 30.4321C29.6658 30.8186 29.99 31.1511 30.37 31.41V31.41ZM31.13 27.68C31.2421 27.5171 31.3856 27.3783 31.5522 27.2718C31.7188 27.1653 31.9051 27.0933 32.1 27.06C32.189 27.0434 32.2795 27.0367 32.37 27.04C32.6727 27.0414 32.9683 27.1319 33.22 27.3C33.3821 27.4129 33.5203 27.5567 33.6267 27.7231C33.7331 27.8896 33.8056 28.0754 33.84 28.27C33.8566 28.359 33.8633 28.4495 33.86 28.54C33.8585 28.8427 33.7681 29.1383 33.6 29.39C33.4871 29.5521 33.3433 29.6903 33.1768 29.7967C33.0104 29.9031 32.8245 29.9756 32.63 30.01C32.3382 30.0627 32.0373 30.0278 31.7653 29.9096C31.4933 29.7914 31.2625 29.5952 31.102 29.3458C30.9414 29.0965 30.8584 28.8052 30.8634 28.5087C30.8684 28.2122 30.9612 27.9238 31.13 27.68V27.68Z" fill="black"/>
<path d="M22.34 49.09L22 47.22L23.6 47.91C23.7199 47.9639 23.8494 47.9932 23.9808 47.9961C24.1122 47.9991 24.2428 47.9756 24.365 47.9271C24.4872 47.8786 24.5984 47.8061 24.692 47.7138C24.7856 47.6216 24.8597 47.5115 24.91 47.39C24.9622 47.2699 24.9902 47.1407 24.9923 47.0097C24.9944 46.8787 24.9707 46.7487 24.9223 46.6269C24.874 46.5052 24.8021 46.3942 24.7108 46.3003C24.6194 46.2065 24.5104 46.1316 24.39 46.08L21.93 45.01C22.196 44.8191 22.429 44.586 22.62 44.32C22.8461 43.9978 23.0058 43.6338 23.0899 43.2492C23.174 42.8647 23.1809 42.4672 23.11 42.08C23.0179 41.5522 22.7862 41.0586 22.4388 40.6507C22.0914 40.2427 21.6411 39.9352 21.1347 39.7602C20.6282 39.5851 20.0842 39.5489 19.559 39.6553C19.0339 39.7617 18.5468 40.0068 18.1484 40.3651C17.75 40.7234 17.4549 41.1819 17.2937 41.6929C17.1324 42.2039 17.111 42.7488 17.2316 43.2708C17.3522 43.7929 17.6105 44.2732 17.9795 44.6617C18.3485 45.0502 18.8148 45.3327 19.33 45.48L17.4 47.34C17.3055 47.4313 17.2298 47.5403 17.1774 47.6608C17.125 47.7813 17.0968 47.9109 17.0945 48.0423C17.0921 48.1737 17.1157 48.3043 17.1639 48.4266C17.212 48.5489 17.2837 48.6605 17.375 48.755C17.4663 48.8496 17.5753 48.9252 17.6958 48.9776C17.8163 49.0301 17.9459 49.0583 18.0773 49.0606C18.2087 49.0629 18.3393 49.0393 18.4616 48.9912C18.5839 48.943 18.6955 48.8713 18.79 48.78L20.04 47.58L20.37 49.44L19.18 53.51C19.1074 53.7646 19.1381 54.0375 19.2654 54.2697C19.3926 54.5018 19.6063 54.6744 19.86 54.75C19.9507 54.778 20.0452 54.7915 20.14 54.79C20.3564 54.79 20.5669 54.7198 20.74 54.59C20.9131 54.4602 21.0394 54.2777 21.1 54.07L21.8 51.7L23.28 53.68C23.4391 53.8922 23.676 54.0325 23.9386 54.07C24.2011 54.1075 24.4678 54.0392 24.68 53.88C24.8922 53.7209 25.0325 53.484 25.07 53.2214C25.1075 52.9589 25.0391 52.6922 24.88 52.48L22.34 49.09ZM20.98 43.18C20.9052 43.2889 20.809 43.3814 20.6972 43.4519C20.5855 43.5224 20.4605 43.5694 20.33 43.59C20.1958 43.6274 20.0553 43.6363 19.9174 43.6162C19.7796 43.5961 19.6474 43.5474 19.5295 43.4733C19.4116 43.3991 19.3104 43.3011 19.2326 43.1856C19.1547 43.0701 19.1018 42.9396 19.0773 42.8025C19.0528 42.6653 19.0573 42.5246 19.0903 42.3893C19.1234 42.2539 19.1844 42.127 19.2694 42.0166C19.3544 41.9062 19.4615 41.8148 19.5839 41.7483C19.7062 41.6817 19.8412 41.6414 19.98 41.63C20.0394 41.6184 20.0996 41.6117 20.16 41.61C20.3424 41.6103 20.5213 41.6605 20.6773 41.7552C20.8332 41.8498 20.9603 41.9854 21.0447 42.1471C21.1292 42.3088 21.1678 42.4905 21.1564 42.6726C21.145 42.8546 21.084 43.0301 20.98 43.18V43.18Z" fill="black"/>
<path d="M13.116 48.254L11.474 47.43C11.2838 47.3349 11.0683 47.3028 10.8587 47.3385C10.6491 47.3743 10.4563 47.4759 10.3084 47.6286C10.1604 47.7813 10.065 47.9772 10.036 48.1879C10.007 48.3985 10.0459 48.6129 10.147 48.8L10.308 49.093C10.6287 49.6753 10.7799 50.3357 10.7445 50.9996C10.7092 51.6634 10.4887 52.304 10.108 52.849C9.96168 53.067 9.90696 53.3338 9.95564 53.5918C10.0043 53.8498 10.1525 54.0782 10.3682 54.2279C10.5839 54.3776 10.8499 54.4364 11.1086 54.3917C11.3673 54.347 11.598 54.2024 11.751 53.989C12.4918 52.9287 12.8388 51.643 12.732 50.354C13.2202 50.7188 13.6008 51.2087 13.8336 51.772C14.0663 52.3353 14.1424 52.951 14.054 53.554C14.0352 53.684 14.0422 53.8165 14.0746 53.9438C14.107 54.0711 14.1641 54.1908 14.2428 54.296C14.3214 54.4012 14.42 54.4899 14.533 54.557C14.6459 54.6241 14.771 54.6682 14.901 54.687C14.9488 54.6929 14.9969 54.6959 15.045 54.696C15.2853 54.6958 15.5175 54.6091 15.6992 54.4517C15.8808 54.2944 15.9996 54.0768 16.034 53.839C16.1969 52.7195 16.0025 51.5771 15.4786 50.5744C14.9548 49.5717 14.128 48.7597 13.116 48.254Z" fill="black"/>
<path d="M30.116 45.254L28.474 44.43C28.2838 44.3349 28.0683 44.3028 27.8587 44.3385C27.6491 44.3743 27.4563 44.4759 27.3084 44.6286C27.1604 44.7813 27.065 44.9772 27.036 45.1879C27.007 45.3985 27.0459 45.6129 27.147 45.8L27.308 46.093C27.6287 46.6753 27.7799 47.3357 27.7445 47.9996C27.7092 48.6634 27.4887 49.304 27.108 49.849C26.9617 50.067 26.907 50.3338 26.9556 50.5918C27.0043 50.8498 27.1525 51.0782 27.3682 51.2279C27.5839 51.3776 27.8499 51.4364 28.1086 51.3917C28.3673 51.347 28.598 51.2024 28.751 50.989C29.4918 49.9287 29.8388 48.643 29.732 47.354C30.2202 47.7188 30.6008 48.2087 30.8336 48.772C31.0663 49.3353 31.1424 49.951 31.054 50.554C31.0352 50.684 31.0422 50.8165 31.0746 50.9438C31.107 51.0711 31.1641 51.1908 31.2428 51.296C31.3214 51.4012 31.42 51.4899 31.533 51.557C31.6459 51.6241 31.771 51.6682 31.901 51.687C31.9488 51.6929 31.9969 51.6959 32.045 51.696C32.2853 51.6958 32.5175 51.6091 32.6992 51.4517C32.8808 51.2944 32.9996 51.0768 33.034 50.839C33.1969 49.7195 33.0025 48.5771 32.4786 47.5744C31.9548 46.5717 31.128 45.7597 30.116 45.254V45.254Z" fill="black"/>
<path d="M61.33 9.49998C61.9826 8.35219 62.1547 6.99287 61.8088 5.71865C61.4628 4.44444 60.6269 3.35879 59.4835 2.6986C58.34 2.03842 56.9819 1.85731 55.7054 2.19479C54.4289 2.53227 53.3378 3.36094 52.67 4.49998L44.99 17.8L2.82001 25.42C2.69081 25.4426 2.56739 25.4907 2.45697 25.5615C2.34655 25.6322 2.25133 25.7243 2.17686 25.8323C2.1024 25.9403 2.05018 26.062 2.02325 26.1904C1.99632 26.3187 1.99522 26.4512 2.02001 26.58L8.24001 61.02C8.28829 61.2812 8.43506 61.5139 8.65001 61.67C8.8198 61.7801 9.01765 61.8391 9.22001 61.84C9.28018 61.8416 9.34039 61.8383 9.40001 61.83L60.57 52.58C60.6999 52.558 60.8241 52.5105 60.9353 52.44C61.0466 52.3696 61.1428 52.2777 61.2182 52.1698C61.2936 52.0618 61.3467 51.9399 61.3745 51.8111C61.4023 51.6824 61.4042 51.5494 61.38 51.42L55.6 19.43L61.33 9.49998ZM52.9 8.09998L58.1 11.1L57.1 12.83L51.9 9.82998L52.9 8.09998ZM52.63 12.56L54.37 13.56L43.37 32.62L41.63 31.62L52.63 12.56ZM43.76 35.16L40.61 37.95L38.39 36.67L39.24 32.54L43.76 35.16ZM59.23 50.79L10.03 59.68L4.16001 27.21L43.67 20.07L37.67 30.48C37.6187 30.574 37.5816 30.6751 37.56 30.78L37.41 31.52V31.53C35.6389 32.404 34.095 33.6775 32.9 35.25L32.25 36.11L29.06 34.34C26.4358 32.8893 23.3917 32.3877 20.4408 32.9196C17.4899 33.4515 14.8126 34.9844 12.86 37.26L10 40.61C9.83106 40.8138 9.74895 41.0758 9.7714 41.3395C9.79385 41.6033 9.91905 41.8477 10.12 42.02C10.2968 42.1756 10.5245 42.261 10.76 42.26C10.906 42.2606 11.0504 42.2296 11.1833 42.1692C11.3162 42.1088 11.4345 42.0204 11.53 41.91L14.38 38.56C16.0325 36.6341 18.2984 35.3369 20.7958 34.887C23.2932 34.437 25.8693 34.8619 28.09 36.09L31.03 37.72L30 39.06C29.8405 39.273 29.7711 39.5401 29.8066 39.8038C29.8422 40.0676 29.9798 40.3068 30.19 40.47C30.3684 40.5968 30.5811 40.6666 30.8 40.67C30.954 40.6687 31.1057 40.633 31.2442 40.5656C31.3826 40.4981 31.5042 40.4005 31.6 40.28L34.5 36.47C35.1698 35.5913 35.9689 34.8192 36.87 34.18L36.3 36.92L35.01 40.74C34.8613 41.1735 34.8518 41.6427 34.9826 42.0819C35.1135 42.5211 35.3783 42.9085 35.74 43.19C35.75 43.2 35.75 43.2 35.75 43.21L38.43 47.79C38.5178 47.9399 38.6434 48.0642 38.7944 48.1502C38.9453 48.2362 39.1163 48.2809 39.29 48.28C39.3303 48.2816 39.3706 48.2783 39.41 48.27C39.6053 48.2503 39.7902 48.172 39.9401 48.0452C40.09 47.9185 40.1981 47.7493 40.25 47.56L40.94 45.19L42.43 47.17C42.5302 47.3089 42.6652 47.419 42.8214 47.4892C42.9777 47.5594 43.1496 47.5873 43.32 47.57C43.4889 47.5531 43.6508 47.4939 43.7907 47.3977C43.9305 47.3016 44.0438 47.1716 44.12 47.02L45.64 44L47.35 46.28C47.4502 46.4189 47.5852 46.529 47.7414 46.5992C47.8977 46.6694 48.0696 46.6973 48.24 46.68C48.4089 46.6631 48.5708 46.6039 48.7107 46.5077C48.8505 46.4116 48.9638 46.2816 49.04 46.13L50.56 43.11L52.27 45.39C52.3488 45.495 52.4475 45.5835 52.5605 45.6505C52.6735 45.7174 52.7986 45.7614 52.9286 45.7799C53.0586 45.7985 53.191 45.7913 53.3182 45.7587C53.4454 45.7261 53.565 45.6688 53.67 45.59C53.7751 45.5112 53.8636 45.4125 53.9305 45.2995C53.9974 45.1865 54.0414 45.0614 54.06 44.9314C54.0785 44.8014 54.0713 44.669 54.0387 44.5418C54.0061 44.4146 53.9488 44.295 53.87 44.19L51.19 40.61C51.0878 40.4739 50.9521 40.3665 50.7962 40.2981C50.6403 40.2298 50.4694 40.2029 50.3 40.22C50.1307 40.2353 49.9678 40.2927 49.8264 40.387C49.6849 40.4813 49.5693 40.6095 49.49 40.76L47.98 43.79L46.27 41.5C46.1693 41.3622 46.0339 41.2536 45.8776 41.1851C45.7212 41.1166 45.5496 41.0907 45.38 41.11C45.2102 41.1235 45.0466 41.1803 44.9049 41.2748C44.7631 41.3693 44.6478 41.4984 44.57 41.65L43.06 44.68L41.35 42.39C41.238 42.2419 41.087 42.128 40.914 42.0608C40.7409 41.9937 40.5525 41.9761 40.37 42.01C40.1872 42.0412 40.017 42.1235 39.8789 42.2474C39.7409 42.3712 39.6408 42.5316 39.59 42.71L38.98 44.77L38.18 43.4C38.4059 43.2753 38.6088 43.113 38.78 42.92L41.44 39.88L46.13 35.73C46.2102 35.6585 46.2778 35.5739 46.33 35.48L47.71 33.09C48.3439 33.3607 48.9501 33.6923 49.52 34.08L51.7 35.59C51.9177 35.7251 52.179 35.7715 52.4299 35.7196C52.6808 35.6677 52.9022 35.5215 53.0485 35.3111C53.1947 35.1007 53.2546 34.8422 53.2158 34.5889C53.177 34.3357 53.0425 34.107 52.84 33.95L50.66 32.44C50.045 32.0172 49.3923 31.6524 48.71 31.35L48.72 31.34L54.05 22.11L59.23 50.79Z" fill="black"/>
</svg>
