<?xml version="1.0" encoding="utf-8"?>
<!-- Generator: Adobe Illustrator 16.0.0, SVG Export Plug-In . SVG Version: 6.00 Build 0)  -->
<!DOCTYPE svg PUBLIC "-//W3C//DTD SVG 1.0//EN" "http://www.w3.org/TR/2001/REC-SVG-20010904/DTD/svg10.dtd">
<svg version="1.0" id="Layer_1" xmlns="http://www.w3.org/2000/svg" xmlns:xlink="http://www.w3.org/1999/xlink" x="0px" y="0px"
	 width="100px" height="100px" viewBox="0 0 100 100" enable-background="new 0 0 100 100" xml:space="preserve">
<path d="M26.667,10c-5.524,0-10,4.476-10,10c0,5.521,4.476,10,10,10c5.521,0,10-4.479,10-10C36.667,14.476,32.188,10,26.667,10z
	 M26.667,23.333c-1.842,0-3.333-1.494-3.333-3.333c0-1.842,1.491-3.333,3.333-3.333C28.509,16.667,30,18.158,30,20
	C30,21.839,28.509,23.333,26.667,23.333z"/>
<path d="M10,46.667c0-7.363,5.97-13.333,13.333-13.333H30c7.363,0,13.333,5.97,13.333,13.333h-6.667C36.667,42.988,33.675,40,30,40
	h-6.667c-3.679,0-6.667,2.988-6.667,6.667H10z"/>
<path d="M26.667,53.333c-5.524,0-10,4.477-10,10c0,5.521,4.476,10,10,10c5.521,0,10-4.479,10-10
	C36.667,57.81,32.188,53.333,26.667,53.333z M26.667,66.667c-1.842,0-3.333-1.494-3.333-3.334c0-1.842,1.491-3.333,3.333-3.333
	C28.509,60,30,61.491,30,63.333C30,65.173,28.509,66.667,26.667,66.667z"/>
<path d="M10,90c0-7.363,5.97-13.333,13.333-13.333H30c7.363,0,13.333,5.97,13.333,13.333h-6.667c0-3.679-2.991-6.667-6.667-6.667
	h-6.667c-3.679,0-6.667,2.988-6.667,6.667H10z"/>
<path d="M90,26.888l-4.606-0.648l-2.057-4.017l-2.064,4.017l-4.605,0.648l3.336,3.128l-0.784,4.427l4.118-2.086l4.121,2.086
	l-0.791-4.427L90,26.888z"/>
<path d="M73.333,26.888l-4.605-0.648l-2.058-4.017l-2.063,4.017L60,26.888l3.337,3.128l-0.785,4.427l4.118-2.086l4.121,2.086
	L70,30.016L73.333,26.888z"/>
<path d="M56.667,26.888l-4.606-0.648l-2.058-4.017l-2.063,4.017l-4.606,0.648l3.336,3.128l-0.785,4.427l4.118-2.086l4.121,2.086
	l-0.791-4.427L56.667,26.888z"/>
<path d="M73.333,70.222l-4.605-0.648l-2.058-4.017l-2.063,4.017L60,70.222l3.337,3.128l-0.785,4.427l4.118-2.086l4.121,2.086
	L70,73.35L73.333,70.222z"/>
<path d="M56.667,70.222l-4.606-0.648l-2.058-4.017l-2.063,4.017l-4.606,0.648l3.336,3.128l-0.785,4.427l4.118-2.086l4.121,2.086
	l-0.791-4.427L56.667,70.222z"/>
</svg>
